<svg width="234" height="89" viewBox="0 0 234 89" fill="none" xmlns="http://www.w3.org/2000/svg">
<circle cx="44.3548" cy="44.3548" r="44.3548" fill="#3A0CA3"/>
<g clip-path="url(#clip0_97_212)">
<path d="M65.1393 39.325L45.1796 23.3573C44.9436 23.1683 44.6503 23.0654 44.348 23.0654C44.0456 23.0654 43.7523 23.1683 43.5163 23.3573L23.5566 39.325C23.3413 39.4978 23.185 39.7332 23.1095 39.9987C23.0339 40.2642 23.0428 40.5467 23.1349 40.8069C23.227 41.0671 23.3978 41.2923 23.6235 41.4512C23.8493 41.61 24.1189 41.6947 24.3949 41.6936H27.0562V64.3145C27.0562 64.6674 27.1964 65.0059 27.446 65.2554C27.6955 65.505 28.034 65.6452 28.3869 65.6452H54.9998V62.9839H49.6772V51.0081C49.6772 50.6552 49.537 50.3167 49.2875 50.0672C49.0379 49.8176 48.6995 49.6774 48.3465 49.6774H40.3627C40.0098 49.6774 39.6713 49.8176 39.4218 50.0672C39.1722 50.3167 39.032 50.6552 39.032 51.0081V62.9839H29.7175V41.6936H52.3385V39.0323H28.1873L44.3546 26.0984L60.5219 39.0323H60.3224C59.9694 39.0323 59.631 39.1725 59.3814 39.422C59.1319 39.6716 58.9917 40.01 58.9917 40.3629V48.3468H61.653V41.6936H64.3143C64.5892 41.692 64.8569 41.6053 65.0805 41.4454C65.3042 41.2855 65.4728 41.0603 65.5632 40.8006C65.6537 40.541 65.6614 40.2598 65.5855 39.9955C65.5096 39.7313 65.3537 39.4971 65.1393 39.325ZM41.6933 52.3387H47.0159V62.9839H41.6933V52.3387Z" fill="white"/>
<path d="M56.3307 58.4464L54.6141 56.7298L52.7379 58.606L55.3992 61.2673C55.6485 61.5152 55.9858 61.6543 56.3373 61.6543C56.6888 61.6543 57.0261 61.5152 57.2754 61.2673L65.2593 53.2835L63.3831 51.4073L56.3307 58.4464Z" fill="white"/>
</g>
<path d="M120.56 40.76C120.56 43.28 119.16 44.92 116.04 44.92H111.36V36.72H116.04C119.16 36.72 120.56 38.28 120.56 40.76ZM105.76 32.08V60H111.36V49.12H114L120.16 60H126.64L119.96 48.68C124.44 47.48 126.32 44.04 126.32 40.64C126.32 35.96 122.96 32.08 116.24 32.08H105.76ZM140.905 42.08C143.785 42.08 146.105 43.92 146.185 46.84H135.665C136.105 43.8 138.225 42.08 140.905 42.08ZM151.425 53.04H145.385C144.665 54.52 143.345 55.72 140.945 55.72C138.145 55.72 135.905 53.88 135.625 50.6H151.825C151.945 49.88 151.985 49.16 151.985 48.44C151.985 41.84 147.465 37.48 141.065 37.48C134.505 37.48 129.945 41.92 129.945 48.92C129.945 55.88 134.625 60.36 141.065 60.36C146.545 60.36 150.225 57.12 151.425 53.04ZM170.953 37.84H154.873V42.44H164.513L154.833 55.48V60H171.073V55.4H161.193L170.953 42.36V37.84ZM175.408 60H181.008V37.84H175.408V60ZM178.248 35.2C180.208 35.2 181.688 33.76 181.688 31.92C181.688 30.08 180.208 28.64 178.248 28.64C176.248 28.64 174.808 30.08 174.808 31.92C174.808 33.76 176.248 35.2 178.248 35.2ZM186.541 60H192.141V30.4H186.541V60ZM197.674 60H203.274V30.4H197.674V60ZM207.367 48.84C207.367 55.76 211.847 60.36 217.447 60.36C220.967 60.36 223.487 58.68 224.807 56.76V60H230.447V37.84H224.807V41C223.487 39.16 221.047 37.48 217.487 37.48C211.847 37.48 207.367 41.92 207.367 48.84ZM224.807 48.92C224.807 53.12 222.007 55.44 218.927 55.44C215.927 55.44 213.087 53.04 213.087 48.84C213.087 44.64 215.927 42.4 218.927 42.4C222.007 42.4 224.807 44.72 224.807 48.92Z" fill="#1E1E1E"/>
<defs>
<clipPath id="clip0_97_212">
<rect width="42.5806" height="42.5806" fill="white" transform="translate(23.0645 23.0645)"/>
</clipPath>
</defs>
</svg>
